<svg width="263" height="335" viewBox="0 0 263 335" fill="none" xmlns="http://www.w3.org/2000/svg">
    <g>
        <path d="M105.459 98.3662L1.65987 0.873076L66.7956 15.0535L105.459 98.3662Z" transform="translate(117.433 325.32) rotate(-84.8215)" fill="#A8A3A3" stroke="#A8A3A3" strokeMiterlimit="16"/>
        <path d="M0.588807 136.605L5.34036 28.3534L79.2254 0.952351L0.588807 136.605Z" transform="translate(0 247.258) rotate(-84.8215)" fill="#9C9C9C" stroke="#9C9C9C" strokeMiterlimit="16"/>
        <path d="M0.617552 82.8902L15.234 1.52514L53.2369 74.1203L0.617552 82.8902Z" transform="translate(40.6289 53.7796) rotate(-84.8215)" fill="#E9E9E9" stroke="#E9E9E9" strokeMiterlimit="16"/>
        <path d="M66.6711 110.003L0.867191 95.6771L71.4296 1.59393L66.6711 110.003Z" transform="translate(21.8253 316.655) rotate(-84.8215)" fill="#949494" stroke="#949494" strokeMiterlimit="16"/>
        <path d="M115.669 105.517L1.5978 0.788178L130.419 23.4057L115.669 105.517Z" transform="translate(7.25281 167.23) rotate(-84.8215)" fill="#CDCDCD" stroke="#CDCDCD" strokeMiterlimit="16"/>
        <path d="M53.2692 0.628701L24.5193 88.8274L0.642303 9.39985L53.2692 0.628701Z" transform="translate(114.825 60.5038) rotate(-84.8215)" fill="#F1F1F1" stroke="#F1F1F1" strokeMiterlimit="16"/>
        <path d="M40.2096 85.4577L1.50839 2.06255L113.038 104.393L40.2096 85.4577Z" transform="translate(138.052 259.769) rotate(-84.8215)" fill="#B4B4B4" stroke="#B4B4B4" strokeMiterlimit="16"/>
        <path d="M105.403 81.25L1.3342 136.23L81.3492 1.23507L105.403 81.25Z" transform="translate(116.432 142.483) rotate(-84.8215)" fill="#E0E0E0" stroke="#E0E0E0" strokeMiterlimit="16"/>
        <path d="M195.379 0.666317L114.739 136.715L1.09629 32.445L195.379 0.666317Z" transform="translate(106.065 256.87) rotate(-84.8215)" fill="#D1D1D1" stroke="#D1D1D1" strokeMiterlimit="16"/>
        <path d="M195.259 106.173L0.962918 137.954L80.4758 0.789297L195.259 106.173Z" transform="translate(0 247.258) rotate(-84.8215)" fill="#C4C4C4" stroke="#C4C4C4" strokeMiterlimit="16"/>
    </g>
</svg>